<?xml version="1.0" encoding="UTF-8" standalone="no"?>
<!-- Generator: Adobe Illustrator 14.0.0, SVG Export Plug-In . SVG Version: 6.00 Build 43363)  -->
<svg xmlns:dc="http://purl.org/dc/elements/1.1/" xmlns:cc="http://creativecommons.org/ns#" xmlns:rdf="http://www.w3.org/1999/02/22-rdf-syntax-ns#" xmlns:svg="http://www.w3.org/2000/svg" xmlns="http://www.w3.org/2000/svg" xmlns:xlink="http://www.w3.org/1999/xlink" xmlns:sodipodi="http://sodipodi.sourceforge.net/DTD/sodipodi-0.dtd" xmlns:inkscape="http://www.inkscape.org/namespaces/inkscape" version="1.1" id="Layer_1" x="0px" y="0px" width="720px" height="720px" viewBox="0 0 720 720" enable-background="new 0 0 720 720" xml:space="preserve" inkscape:version="0.47 r22583" sodipodi:docname="jgm104_Green_Umbrella.svg"><metadata id="metadata40"><rdf:RDF><cc:Work rdf:about=""><dc:format>image/svg+xml</dc:format><dc:type rdf:resource="http://purl.org/dc/dcmitype/StillImage"/><dc:title/></cc:Work></rdf:RDF></metadata><defs id="defs38"><linearGradient inkscape:collect="always" id="linearGradient3694"><stop style="stop-color:#deffff;stop-opacity:1;" offset="0" id="stop3696"/><stop style="stop-color:#deffff;stop-opacity:0;" offset="1" id="stop3698"/></linearGradient><linearGradient inkscape:collect="always" id="linearGradient3686"><stop style="stop-color:#ff3300;stop-opacity:1;" offset="0" id="stop3688"/><stop style="stop-color:#ff794b;stop-opacity:1" offset="1" id="stop3690"/></linearGradient><linearGradient inkscape:collect="always" id="linearGradient3678"><stop style="stop-color:#cc9900;stop-opacity:1;" offset="0" id="stop3680"/><stop style="stop-color:#cc9900;stop-opacity:0;" offset="1" id="stop3682"/></linearGradient><inkscape:perspective sodipodi:type="inkscape:persp3d" inkscape:vp_x="0 : 360 : 1" inkscape:vp_y="0 : 1000 : 0" inkscape:vp_z="720 : 360 : 1" inkscape:persp3d-origin="360 : 240 : 1" id="perspective42"/><linearGradient inkscape:collect="always" xlink:href="#linearGradient3678" id="linearGradient3684" x1="341.219" y1="396.4315" x2="348.219" y2="396.4315" gradientUnits="userSpaceOnUse"/><linearGradient inkscape:collect="always" xlink:href="#linearGradient3686" id="linearGradient3692" x1="280.34436" y1="404.61258" x2="270.98422" y2="527.26324" gradientUnits="userSpaceOnUse" gradientTransform="matrix(1.3646939,0,0,1.3646939,-59.384367,-135.71823)"/><linearGradient inkscape:collect="always" xlink:href="#linearGradient3694" id="linearGradient3700" x1="264.41571" y1="495.40594" x2="263.61926" y2="470.8201" gradientUnits="userSpaceOnUse" gradientTransform="matrix(1.6256567,0,0,1.6368609,-120.57114,-292.48716)"/><linearGradient inkscape:collect="always" xlink:href="#SVGID_3_" id="linearGradient3702" gradientUnits="userSpaceOnUse" x1="138.0977" y1="180.74561" x2="536.09772" y2="375.74561"/><linearGradient inkscape:collect="always" xlink:href="#SVGID_3_" id="linearGradient3704" gradientUnits="userSpaceOnUse" x1="138.0977" y1="180.74561" x2="536.09772" y2="375.74561"/><linearGradient inkscape:collect="always" xlink:href="#linearGradient3678" id="linearGradient3706" gradientUnits="userSpaceOnUse" x1="341.219" y1="396.4315" x2="348.219" y2="396.4315"/></defs><sodipodi:namedview pagecolor="#ffffff" bordercolor="#666666" borderopacity="1" objecttolerance="10" gridtolerance="10" guidetolerance="10" inkscape:pageopacity="0" inkscape:pageshadow="2" inkscape:window-width="1280" inkscape:window-height="712" id="namedview36" showgrid="false" inkscape:zoom="0.62779931" inkscape:cx="360" inkscape:cy="373.38116" inkscape:window-x="-4" inkscape:window-y="-4" inkscape:window-maximized="1" inkscape:current-layer="Layer_1"/>
<g transform="matrix(1.1818609,0.68234718,-0.68234718,1.1818609,240.43449,-310.68371)" id="g3626">
	<linearGradient y2="527.64551" x2="565.54303" y1="363.64551" x1="289.543" gradientUnits="userSpaceOnUse" id="linearGradient3628">
		<stop id="stop3630" style="stop-color: rgb(255, 255, 255);" offset="0"/>
		<stop id="stop3632" style="stop-color: rgb(35, 31, 32);" offset="1"/>
	</linearGradient>
	<polygon style="fill:url(#SVGID_1_)" id="polygon3634" points="348.219,526.184 348.219,526.184 341.219,526.184 341.219,266.679 348.219,266.679 "/>
</g><g id="g3" transform="matrix(1.1818609,0.68234718,-0.68234718,1.1818609,240.43449,-310.68371)" style="fill:url(#linearGradient3684);fill-opacity:1">
	<linearGradient id="SVGID_1_" gradientUnits="userSpaceOnUse" x1="289.543" y1="363.64551" x2="565.54303" y2="527.64551" style="fill:url(#linearGradient3684);fill-opacity:1">
		<stop offset="0" style="stop-color:rgb(255, 255, 255);fill-opacity:1;fill:url(#linearGradient3684)" id="stop6"/>
		<stop offset="1" style="stop-color:rgb(35, 31, 32);fill-opacity:1;fill:url(#linearGradient3684)" id="stop8"/>
	</linearGradient>
	<polygon points="348.219,526.184 348.219,526.184 341.219,526.184 341.219,266.679 348.219,266.679 " id="polygon10" style="fill:url(#linearGradient3706);fill-opacity:1"/>
</g>
<g id="g12" transform="matrix(1.1818609,0.68234718,-0.68234718,1.1818609,240.43449,-310.68371)">
	<linearGradient id="SVGID_2_" gradientUnits="userSpaceOnUse" x1="296.69189" y1="171.3315" x2="488.69189" y2="217.3315">
		<stop offset="0" style="stop-color: rgb(255, 255, 255);" id="stop15"/>
		<stop offset="1" style="stop-color: rgb(35, 31, 32);" id="stop17"/>
	</linearGradient>
	<polygon points="348.219,198.998 348.219,198.998 341.219,198.998 341.219,166.677 348.219,166.677 " id="polygon19" style="fill:url(#SVGID_2_)"/>
</g>
<g id="g21" transform="matrix(1.1818609,0.68234718,-0.68234718,1.1818609,240.43449,-310.68371)">
	<linearGradient id="SVGID_3_" gradientUnits="userSpaceOnUse" x1="138.0977" y1="180.74561" x2="536.09772" y2="375.74561">
		<stop offset="0" style="stop-color: rgb(180, 226, 187);" id="stop24"/>
		<stop offset="0.4724" style="stop-color: rgb(55, 179, 74);" id="stop26"/>
		<stop offset="1" style="stop-color: rgb(49, 135, 62);" id="stop28"/>
	</linearGradient>
	<path d="m 198.261,300.806 c 18.387,0 35.326,6.168 48.888,16.532 13.562,-10.364 30.501,-16.532 48.888,-16.532 18.387,0 35.326,6.168 48.888,16.532 13.562,-10.364 30.501,-16.532 48.888,-16.532 18.387,0 35.326,6.168 48.889,16.532 13.562,-10.364 30.502,-16.532 48.889,-16.532 16.466,0 31.772,4.948 44.532,13.423 -27.962,-78.601 -103.001,-134.881 -191.197,-134.881 -88.196,0 -163.236,56.28 -191.198,134.881 12.76,-8.476 28.066,-13.423 44.533,-13.423 z" id="path30" style="fill:url(#linearGradient3704)"/>
</g>
<g id="g32" transform="matrix(1.1818609,0.68234718,-0.68234718,1.1818609,225.21813,-306.33642)">
	<path d="m 339.719,481.648 10,0 -10,0 z" id="path34" sodipodi:nodetypes="ccc" style="fill:#5c3f22"/>
</g>
<path style="fill:url(#linearGradient3692);fill-opacity:1;stroke:#99acb8;stroke-width:0;stroke-linecap:butt;stroke-linejoin:miter;stroke-miterlimit:4;stroke-opacity:1;stroke-dasharray:none" d="m 308.779,368.48107 125.97154,107.20634 -0.53748,145.25196 -248.11109,0 c 0.54524,-45.07293 0.55286,-161.25078 1.0981,-153.11147 L 308.779,368.48107 z" id="path2848" sodipodi:nodetypes="ccccc"/><path style="fill:none;stroke:#628994;stroke-width:24.93989754;stroke-linecap:round;stroke-linejoin:miter;stroke-miterlimit:4;stroke-opacity:1;stroke-dasharray:none" d="M 145.28441,470.59159 307.09783,338.0719 468.50882,479.61989" id="path2850" sodipodi:nodetypes="ccc"/><rect style="fill:url(#linearGradient3700);fill-opacity:1;fill-rule:evenodd;stroke:#5c747b;stroke-width:0;stroke-linecap:round;stroke-linejoin:round;stroke-miterlimit:4;stroke-opacity:1;stroke-dasharray:none;stroke-dashoffset:0" id="rect3624" width="65.585945" height="102.54015" x="275.19073" y="507.56699" ry="1.3090687"/><g transform="matrix(1.1818609,0.68234718,-0.68234718,1.1818609,240.43449,-310.68371)" id="g3636">
	<linearGradient y2="217.3315" x2="488.69189" y1="171.3315" x1="296.69189" gradientUnits="userSpaceOnUse" id="linearGradient3638">
		<stop id="stop3640" style="stop-color: rgb(255, 255, 255);" offset="0"/>
		<stop id="stop3642" style="stop-color: rgb(35, 31, 32);" offset="1"/>
	</linearGradient>
	<polygon style="fill:#996600" id="polygon3644" points="348.219,198.998 348.219,198.998 341.219,198.998 341.219,166.677 348.219,166.677 "/>
</g><g transform="matrix(1.1818609,0.68234718,-0.68234718,1.1818609,240.43449,-310.68371)" id="g3646">
	<linearGradient y2="375.74561" x2="536.09772" y1="180.74561" x1="138.0977" gradientUnits="userSpaceOnUse" id="linearGradient3648">
		<stop id="stop3650" style="stop-color: rgb(180, 226, 187);" offset="0"/>
		<stop id="stop3652" style="stop-color: rgb(55, 179, 74);" offset="0.4724"/>
		<stop id="stop3654" style="stop-color: rgb(49, 135, 62);" offset="1"/>
	</linearGradient>
	<path style="fill:url(#linearGradient3702)" id="path3656" d="m 198.261,300.806 c 18.387,0 35.326,6.168 48.888,16.532 13.562,-10.364 30.501,-16.532 48.888,-16.532 18.387,0 35.326,6.168 48.888,16.532 13.562,-10.364 30.501,-16.532 48.888,-16.532 18.387,0 35.326,6.168 48.889,16.532 13.562,-10.364 30.502,-16.532 48.889,-16.532 16.466,0 31.772,4.948 44.532,13.423 -27.962,-78.601 -103.001,-134.881 -191.197,-134.881 -88.196,0 -163.236,56.28 -191.198,134.881 12.76,-8.476 28.066,-13.423 44.533,-13.423 z"/>
</g><g transform="matrix(1.1818609,0.68234718,-0.68234718,1.1818609,225.21813,-306.33642)" id="g3658">
	<path style="fill:#5c3f22" sodipodi:nodetypes="ccc" id="path3660" d="m 339.719,481.648 10,0 -10,0 z"/>
</g></svg>